<?xml version="1.0" standalone="no"?>
<!DOCTYPE svg PUBLIC "-//W3C//DTD SVG 20010904//EN"
 "http://www.w3.org/TR/2001/REC-SVG-20010904/DTD/svg10.dtd">
<svg version="1.0" xmlns="http://www.w3.org/2000/svg"
 width="512.000000pt" height="512.000000pt" viewBox="0 0 512.000000 512.000000"
 preserveAspectRatio="xMidYMid meet">
<metadata>
Created by potrace 1.14, written by Peter Selinger 2001-2017
</metadata>
<g transform="translate(0.000000,512.000000) scale(0.100000,-0.100000)"
fill="#000000" stroke="none">
<path d="M423 4949 c-44 -13 -110 -91 -128 -152 -22 -74 -20 -128 9 -262 6
-32 35 -119 89 -270 66 -188 155 -366 348 -695 37 -63 68 -126 69 -140 4 -43
0 -58 -15 -63 -23 -10 -113 18 -215 66 -262 123 -404 141 -453 58 -9 -16 -17
-42 -17 -58 0 -31 38 -118 66 -153 86 -104 137 -136 394 -250 170 -75 245
-117 293 -164 58 -56 66 -81 71 -218 3 -67 8 -148 12 -178 13 -90 7 -182 -14
-236 -23 -62 -109 -194 -126 -194 -4 0 -40 22 -81 48 -120 80 -281 155 -331
155 -107 0 -176 -117 -128 -215 9 -18 52 -62 96 -98 44 -36 87 -72 96 -80 9
-9 58 -53 107 -99 101 -94 163 -138 280 -201 188 -101 221 -143 204 -265 -20
-145 -136 -412 -280 -649 l-54 -88 -100 -34 c-196 -67 -243 -104 -246 -197 -2
-43 13 -80 46 -113 39 -39 -3 -38 1600 -39 1524 0 1540 0 1580 20 107 54 93
195 -26 271 -36 22 -162 57 -172 47 -7 -7 -88 89 -107 127 -32 63 -30 133 5
181 32 44 89 154 104 200 15 47 29 109 46 199 3 19 9 101 12 183 5 133 4 149
-12 167 -60 66 -201 -59 -256 -227 -11 -31 -19 -63 -19 -72 0 -44 -81 -220
-101 -221 -4 0 -5 15 -4 33 16 177 19 224 19 302 0 148 -25 251 -86 368 -45
85 -136 180 -171 180 -60 -1 -70 -38 -38 -138 17 -53 23 -98 25 -190 4 -145
-10 -234 -63 -392 -45 -136 -51 -163 -55 -256 -6 -137 41 -302 118 -420 17
-25 17 -27 1 -27 -10 0 -41 17 -69 37 -70 50 -207 117 -291 142 -178 53 -421
61 -608 21 -20 -4 -37 -6 -37 -3 0 16 65 135 91 166 51 63 96 79 256 92 125
11 231 50 323 121 76 58 139 127 185 204 65 112 58 189 -25 249 -69 50 -141
30 -284 -77 l-40 -30 -31 42 c-102 134 -132 239 -109 381 2 17 7 91 10 165 6
153 13 183 52 225 59 65 133 108 365 209 229 100 316 166 381 290 37 70 36
129 -4 166 -37 34 -55 38 -139 27 -73 -9 -172 -44 -316 -110 -103 -47 -166
-66 -199 -59 -16 3 -18 11 -13 50 3 35 22 77 76 165 39 65 71 121 71 124 0 3
8 17 19 31 10 15 46 81 81 147 34 66 65 125 68 130 4 6 7 12 7 15 1 3 11 28
24 55 45 99 154 408 166 473 28 158 21 235 -29 307 -58 84 -106 104 -188 79
-27 -8 -85 -84 -112 -146 -14 -31 -43 -116 -65 -188 -25 -83 -55 -158 -82
-202 -45 -76 -53 -76 -64 -3 -12 75 -47 175 -78 223 -92 137 -284 117 -362
-38 -12 -22 -18 -58 -18 -100 -1 -55 4 -75 31 -125 18 -33 58 -90 90 -127 76
-88 110 -152 125 -235 20 -107 -2 -225 -48 -263 -17 -14 -98 -136 -109 -165
-5 -11 -19 -48 -31 -83 l-23 -63 -51 63 c-141 172 -160 185 -246 175 -83 -9
-145 -82 -145 -169 0 -49 14 -76 213 -393 70 -112 127 -211 127 -220 0 -10
-13 -45 -30 -79 -31 -63 -44 -117 -54 -221 -16 -158 -17 -165 -32 -165 -33 0
-156 309 -184 462 -7 37 -10 93 -6 125 23 234 16 286 -55 406 -27 46 -38 74
-34 88 4 11 78 134 165 273 87 139 163 269 168 289 11 41 1 105 -24 142 -36
55 -116 83 -184 65 -45 -12 -72 -38 -179 -175 -25 -30 -47 -52 -51 -48 -4 4
-17 37 -29 72 -26 71 -79 167 -120 214 -48 55 -63 95 -66 176 -6 133 24 208
135 341 142 168 158 302 50 411 -87 88 -213 86 -297 -3 -31 -33 -58 -99 -84
-203 -12 -49 -25 -94 -29 -98 -5 -5 -24 18 -43 51 -36 61 -58 118 -97 252 -34
113 -68 190 -107 238 -49 60 -91 77 -150 61z"/>
<path d="M1475 4401 c-61 -32 -90 -83 -90 -157 0 -48 5 -68 25 -97 46 -67 122
-94 201 -71 107 32 155 153 103 256 -40 77 -157 111 -239 69z"/>
<path d="M4006 4188 c-160 -34 -187 -250 -41 -325 44 -23 123 -20 167 6 55 33
82 83 82 150 0 114 -97 193 -208 169z"/>
<path d="M3387 3975 c-153 -39 -177 -247 -37 -320 167 -87 334 121 214 265
-47 55 -105 73 -177 55z"/>
<path d="M3845 2807 c-93 -30 -136 -148 -82 -227 70 -104 220 -94 269 18 55
123 -60 251 -187 209z"/>
<path d="M3200 2343 c-114 -39 -183 -138 -174 -251 15 -194 237 -290 383 -166
112 96 111 276 -2 368 -23 18 -57 38 -76 45 -34 11 -104 14 -131 4z"/>
<path d="M4187 1717 c-40 -8 -65 -20 -77 -35 -21 -25 -50 -116 -50 -155 0 -22
-8 -28 -65 -47 -189 -63 -328 -240 -371 -474 -12 -63 -11 -203 1 -262 22 -106
92 -226 179 -308 43 -39 151 -108 211 -133 99 -42 276 -60 376 -39 431 90 697
499 598 919 -87 365 -447 605 -802 534z m212 -688 c60 -12 121 -51 155 -98 51
-68 71 -202 41 -261 -33 -64 -108 -90 -154 -52 -24 19 -27 37 -17 99 5 32 2
51 -13 81 -44 87 -137 132 -288 141 -36 2 37 63 104 87 47 16 106 17 172 3z"/>
</g>
</svg>
